<?xml version="1.0" encoding="UTF-8"?><svg xmlns="http://www.w3.org/2000/svg" xmlns:xlink="http://www.w3.org/1999/xlink" width="375" zoomAndPan="magnify" viewBox="180 80 10 150" height="374.999991" preserveAspectRatio="xMidYMid meet" version="1.0"><defs><clipPath id="clip-0"><path d="M 132.542969 82.144531 L 242.792969 82.144531 L 242.792969 223.144531 L 132.542969 223.144531 Z M 132.542969 82.144531 " clip-rule="nonzero"/></clipPath></defs><g clip-path="url(#clip-0)"><path fill="rgb(255, 255, 255)" d="M 180.097656 216.246094 L 195.234375 216.246094 L 195.234375 137.292969 L 180.097656 144.84375 Z M 242.792969 223.144531 L 217.285156 223.144531 L 217.285156 93.300781 L 180.097656 111.851562 L 180.097656 137.132812 L 202.148438 126.136719 L 202.148438 223.144531 L 173.183594 223.144531 L 173.183594 148.289062 L 158.046875 155.839844 L 158.046875 223.144531 L 132.539062 223.144531 L 132.539062 216.246094 L 151.132812 216.246094 L 151.132812 151.578125 L 173.183594 140.582031 L 173.183594 107.589844 L 224.199219 82.144531 L 224.199219 216.246094 L 242.792969 216.246094 L 242.792969 223.144531 " fill-opacity="1" fill-rule="nonzero"/></g></svg>